<?xml version="1.0" encoding="UTF-8"?>
<svg version="1.1" xmlns="http://www.w3.org/2000/svg" width="256" height="237">
<path d="M0 0 C2.27684959 2.27684959 3.22513324 4.5253109 4.5 7.5 C17.06700836 33.25757056 49.56499358 47.94278658 75 57 C75.71800781 57.24024902 76.43601563 57.48049805 77.17578125 57.72802734 C82.78268461 59.67402691 82.78268461 59.67402691 85 63 C85.33385557 65.82923103 85.5612936 68.58610418 85.7109375 71.42578125 C85.81988291 73.17547236 85.92910674 74.92514616 86.03857422 76.67480469 C86.09301697 77.59467163 86.14745972 78.51453857 86.20355225 79.46228027 C87.93313457 108.2155858 90.40386271 137.13939653 99.42944336 164.66699219 C100 167 100 167 100 172 C31.69 172 -36.62 172 -107 172 C-105.90708661 163.25669291 -105.90708661 163.25669291 -104.25 158.625 C-95.81662271 132.06752826 -93.89281985 103.55443896 -92.73364258 75.88134766 C-92.69878754 75.12361557 -92.6639325 74.36588348 -92.62802124 73.58518982 C-92.56267893 72.15832494 -92.50457089 70.73110348 -92.45498657 69.30360413 C-92.28789834 65.77548045 -92.09043688 62.91838467 -90 60 C-86.33145959 58.34556021 -82.6613802 57.19566505 -78.8046875 56.0546875 C-53.96956958 48.38422991 -28.48197794 32.32133439 -13 11 C-11.82688458 8.66494168 -10.826238 6.31542855 -9.85546875 3.890625 C-7.71465094 -0.84068012 -4.7152512 -1.81355815 0 0 Z " fill="#FECC02" transform="translate(128,28)"/>
<path d="M0 0 C2.36181641 1.63305664 2.36181641 1.63305664 4.6015625 3.91015625 C5.42140625 4.73580078 6.24125 5.56144531 7.0859375 6.41210938 C7.92382812 7.28673828 8.76171875 8.16136719 9.625 9.0625 C10.8934375 10.33383789 10.8934375 10.33383789 12.1875 11.63085938 C19.91305063 19.52091305 23.22281679 25.4030664 24.99609375 36.40234375 C27.35170858 44.84406069 33.18892846 50.61655129 39.30078125 56.62890625 C40.49358955 57.8189048 40.49358955 57.8189048 41.710495 59.03294373 C43.38543602 60.70119438 45.06395504 62.36585961 46.74584961 64.02709961 C49.30123864 66.55137576 51.84584673 69.08612099 54.38867188 71.62304688 C56.02542215 73.25062325 57.66277241 74.87759652 59.30078125 76.50390625 C60.05313553 77.25201065 60.80548981 78.00011505 61.5806427 78.77088928 C65.70909893 82.84456243 69.9185219 86.74356273 74.36051941 90.47447205 C76 92 76 92 78 95 C73.94343719 95.1238616 69.88761022 95.21445733 65.82958984 95.2746582 C64.45016298 95.2997593 63.07086858 95.33384873 61.69189453 95.37719727 C59.70664128 95.43802875 57.72040641 95.46357937 55.734375 95.48828125 C53.94338379 95.52755737 53.94338379 95.52755737 52.11621094 95.56762695 C49 95 49 95 46.8137207 92.67651367 C46.21519287 91.79326416 45.61666504 90.91001465 45 90 C43.78027057 88.86105265 42.52902088 87.75475766 41.24609375 86.6875 C36.94616132 83.00952031 33.0135388 79.04548978 29.0625 75 C16.14474722 61.91601107 16.14474722 61.91601107 -0.9375 56.125 C-10.75841302 54.58781361 -15.84619012 49.45448945 -22.59375 42.42578125 C-24.66293235 40.33980359 -26.74767403 38.54778493 -29.0625 36.75 C-31.50283092 34.70773725 -31.99000443 34.02776547 -33.125 30.875 C-33 28 -33 28 -32 25.625 C-30 24 -30 24 -26.734375 23.5546875 C-22.04803584 24.11351874 -20.19191531 26.08871928 -17.25 29.5 C-15.54767504 31.40866738 -13.82958053 33.20537961 -12 35 C-11.01 35 -10.02 35 -9 35 C-9.45883878 29.99983386 -13.63375789 27.28570082 -17.13867188 24.15429688 C-19.53612328 21.90138382 -20.91313462 20.57910251 -21.41015625 17.265625 C-21 15 -21 15 -19.875 13.1875 C-17.03294611 11.38753253 -15.32408048 11.54383144 -12 12 C-9.60250035 13.71350492 -7.71139244 15.81191396 -5.75 18 C-3.86557692 20.04069231 -1.95936911 22.02889814 0 24 C0.66 24 1.32 24 2 24 C1.65975871 20.95353186 1.33788887 19.36388032 -0.77734375 17.0859375 C-1.49019531 16.52132812 -2.20304687 15.95671875 -2.9375 15.375 C-5.55149144 13.27811394 -7.11077516 11.83383726 -9 9 C-9.32502803 5.87973093 -9.51151479 3.85252465 -7.875 1.125 C-5.11655963 -0.53006422 -3.17293847 -0.31494823 0 0 Z " fill="#FEFEFA" transform="translate(95,105)"/>
<path d="M0 0 C2.02097905 1.5535096 2.89073091 2.41488166 3.36328125 4.9453125 C3.00204662 20.45061415 -3.92075246 33.41958794 -14 45 C-14.68835938 45.81984375 -15.37671875 46.6396875 -16.0859375 47.484375 C-21.20304274 53.40944422 -26.7341921 58.31699535 -33 63 C-46.87931034 53.48275862 -46.87931034 53.48275862 -48.875 45.5 C-47.58576018 40.34304072 -44.66935853 37.73144582 -41 34 C-39.59986571 32.49492058 -38.21222476 30.97887142 -36.82470703 29.4621582 C-35.2852173 27.78273745 -33.73528267 26.11346213 -32.18359375 24.4453125 C-30.06991706 22.16785014 -27.9810046 19.87114045 -25.91015625 17.5546875 C-8.45010477 -1.89696229 -8.45010477 -1.89696229 0 0 Z " fill="#FEFEFA" transform="translate(177,101)"/>
<path d="M0 0 C2.5546875 1.53125 2.5546875 1.53125 4.875 3.5 C6.04675781 4.47453125 6.04675781 4.47453125 7.2421875 5.46875 C7.82226562 5.9740625 8.40234375 6.479375 9 7 C8.41333 10.29596965 7.40561405 11.98498736 5.09375 14.3828125 C4.51496094 14.99253906 3.93617187 15.60226563 3.33984375 16.23046875 C2.42912109 17.16826172 2.42912109 17.16826172 1.5 18.125 C0.30017331 19.37577474 -0.8978334 20.62829864 -2.09375 21.8828125 C-2.62677734 22.43340332 -3.15980469 22.98399414 -3.70898438 23.55126953 C-5.10330647 24.98895966 -5.10330647 24.98895966 -6 27 C-14.58 27 -23.16 27 -32 27 C-26.82799338 20.96599228 -21.55212054 15.23301135 -16 9.5625 C-15.1234375 8.64017578 -14.246875 7.71785156 -13.34375 6.76757812 C-12.4878125 5.89681641 -11.631875 5.02605469 -10.75 4.12890625 C-9.98171875 3.33556885 -9.2134375 2.54223145 -8.421875 1.72485352 C-5.3761047 -0.44433672 -3.66522087 -0.45291703 0 0 Z " fill="#FEFEFA" transform="translate(111,173)"/>
</svg>
